<svg width="49" height="49" viewBox="0 0 49 49" fill="none" xmlns="http://www.w3.org/2000/svg">
<g clip-path="url(#clip0_121_4247)">
<path d="M0 40.778V1.05615C0.433468 1.03678 0.810588 1.00451 1.19421 1.00451C8.99664 1.00451 16.7991 0.989445 24.6015 1.03248C25.2184 1.07254 25.8039 1.31732 26.2638 1.7275C27.406 2.76251 28.8473 3.74372 29.4043 5.06491C29.9483 6.35598 29.5495 8.02576 29.5495 9.52986C29.5495 12.4692 29.5445 15.41 29.5344 18.3522C29.5181 18.4487 29.4912 18.5433 29.4542 18.634H27.9197V6.67875H24.0185V2.62479H1.66235V39.3191H15.8671V40.778H0ZM27.4537 5.06922L25.6071 3.33273V5.06922H27.4537Z" fill="white"/>
<path d="M34.2438 34.4235C34.985 33.9501 36.3092 34.8409 36.3396 33.5262C36.3699 32.2975 35.0392 33.0958 34.4085 32.6354V31.2475C34.7184 31.2281 35.0413 31.2926 35.2646 31.1743C35.5798 30.9661 35.8706 30.7236 36.1315 30.4513C35.8368 30.1995 35.5572 29.752 35.2494 29.7305C34.027 29.6444 32.796 29.6982 31.5649 29.6896C29.8527 29.6767 29.2545 28.9429 29.4518 27.2452C29.5753 26.1822 29.6057 25.1063 29.6382 24.0347C29.662 23.2364 29.2719 22.8448 28.4245 22.9782C27.991 24.252 27.6312 25.5216 27.1501 26.7459C26.3438 28.803 24.8657 30.5072 21.8682 30.3071C20.5028 30.2146 19.1287 30.2921 17.6679 30.2921V28.6632C19.2566 28.6632 20.8648 28.6201 22.4729 28.6632C23.9034 28.7127 24.8418 28.0176 25.3403 26.8019C25.9133 25.382 26.4018 23.9299 26.8033 22.4531C27.0374 21.6269 27.4123 21.2675 28.3053 21.2869C30.2125 21.3299 31.1922 22.2207 31.2832 24.1982C31.2836 24.8452 31.2482 25.4917 31.177 26.1348C31.1358 26.7696 31.0903 27.4044 31.0404 28.1661C32.4774 28.1661 33.8385 28.1661 35.1974 28.1661C37.0917 28.1855 38.0886 29.5282 37.5966 31.3314C37.5434 31.6526 37.5649 31.9816 37.6595 32.2932C37.731 32.6009 38.0388 32.9215 37.9824 33.1819C37.6313 34.8452 37.2044 36.4935 36.8056 38.1482C36.7232 38.4903 36.5498 38.8518 36.5888 39.1811C36.8056 40.7863 35.904 41.9547 34.2654 41.9676C31.1965 41.9934 28.1232 42.0623 25.0607 41.9074C23.3919 41.8234 21.749 41.292 20.0867 41.0144C19.3086 40.8853 18.5089 40.8767 17.6484 40.7992V39.1961C19.2523 39.3898 20.8019 39.5727 22.3537 39.7642C24.1288 39.9794 25.8995 40.3043 27.6832 40.4097C29.6989 40.5216 31.7275 40.4743 33.7518 40.4097C34.1853 40.3947 34.6079 39.9923 35.0348 39.7642C34.7459 39.4027 34.4569 39.0441 34.1679 38.6883L33.8948 38.8475V37.5134C34.545 37.1584 35.7674 37.8061 35.7197 36.5408C35.7197 36.2202 34.894 35.9319 34.4475 35.6306L34.2308 35.8458L34.2438 34.4235Z" fill="white"/>
<path d="M4.98438 25.4124V23.9922H24.4493V25.4124H4.98438Z" fill="white"/>
<path d="M5.00433 20.4736H24.4194V21.9799H5L5.00433 20.4736Z" fill="white"/>
<path d="M5.00781 28.9427V27.458H15.7492V28.9427H5.00781Z" fill="white"/>
<path d="M4.97461 32.3883V31.0068H15.7766V32.3947L4.97461 32.3883Z" fill="white"/>
<path d="M15.7982 34.4492V35.8608H5.03516V34.4492H15.7982Z" fill="white"/>
<path d="M8.46002 16.7404L5.56445 13.8183L6.69797 12.9231L8.29964 14.9178L12.1423 10.9951L13.226 12.0215L8.46002 16.7404Z" fill="white"/>
<path d="M15.3691 11.5139V10.1152H24.42V11.5139H15.3691Z" fill="white"/>
<path d="M15.377 14.9672V13.5771H24.4386V14.9715L15.377 14.9672Z" fill="white"/>
<path d="M24.4577 17.0547V18.4684H15.4004V17.0547H24.4577Z" fill="white"/>
</g>
<defs>
<clipPath id="clip0_121_4247">
<rect width="38" height="41" fill="white" transform="translate(0 1)"/>
</clipPath>
</defs>
</svg>
