<svg width="32" height="40" viewBox="0 0 32 40" fill="none" xmlns="http://www.w3.org/2000/svg">
<path d="M3.55118 36.5655C3.45165 36.5306 3.35011 36.5015 3.24711 36.4784C0.0087966 36.3161 0.00878906 36.3161 0.00878906 33.131C0.00878906 22.7705 0.00878906 12.4099 0.00878906 2.04932C0.00878906 0.00605209 0.00878906 0.00603754 2.13726 0.00603754C10.043 0.00603754 17.9568 0.00603754 25.8788 0.00603754C28.6549 0.00603754 28.4421 -0.0630745 28.4178 2.52106C28.4178 2.82154 28.4451 3.10099 28.4573 3.35039C28.6093 3.43753 28.6914 3.52165 28.7613 3.52766C31.9936 3.68992 31.9936 3.68694 31.9936 6.85701C31.9936 17.2737 31.9936 27.6843 31.9936 38.089C31.9936 39.979 31.9723 40 30.0293 40C22.0668 40 14.1023 40 6.13575 40C3.33529 40 3.56942 40.0511 3.59071 37.488C3.59375 37.1995 3.56638 36.9081 3.55118 36.5655ZM26.7819 34.8858V1.58356H1.54434V34.8828L26.7819 34.8858ZM30.4124 38.4916V5.13824H28.4056V6.81795C28.4056 16.0848 28.3691 25.3516 28.439 34.6154C28.439 36.1689 27.9586 36.5385 26.4596 36.5235C19.9039 36.4484 13.3512 36.4904 6.79859 36.4904H5.18706V38.4856L30.4124 38.4916Z" fill="white"/>
<path d="M4.50293 28.582C4.50293 26.2803 4.50293 26.2803 7.23953 26.2803C9.42881 26.2803 9.4288 26.2803 9.4288 28.8133C9.4288 31.103 9.4288 31.103 6.6922 31.1C4.50291 31.097 4.50293 31.097 4.50293 28.582ZM7.93277 29.5315L7.84462 27.8278H6.09319V29.5285L7.93277 29.5315Z" fill="white"/>
<path d="M9.44118 21.7549C9.44118 23.9875 9.44116 23.9875 6.79882 23.9845C4.50008 23.9845 4.5001 23.9845 4.50314 21.2471C4.50314 19.1437 4.50314 19.1437 7.3188 19.1437C9.44423 19.1407 9.44422 19.1408 9.44118 21.7549ZM7.92085 22.404C7.89044 21.7219 7.86612 21.202 7.84483 20.6852H6.08427V22.404H7.92085Z" fill="white"/>
<path d="M7.06873 4.94922C9.44045 4.94922 9.44046 4.94925 9.44046 7.46127C9.44046 9.83807 9.44047 9.83805 6.78597 9.83805C4.4629 9.83805 4.46289 9.83807 4.46289 7.08266C4.46593 4.94925 4.46591 4.94922 7.06873 4.94922ZM6.07138 8.20646H7.91709L7.83802 6.44861H6.07138V8.20646Z" fill="white"/>
<path d="M9.44086 14.5881C9.44086 16.992 9.44086 16.9919 6.93839 16.9739C4.50586 16.9739 4.50586 16.9739 4.50586 14.3357C4.50586 12.1242 4.50585 12.1242 7.19076 12.1272C9.44085 12.1272 9.44086 12.1272 9.44086 14.5881ZM7.82624 13.5815H6.09612V15.3333H7.82624V13.5815Z" fill="white"/>
<path d="M17.7939 19.1411C19.3568 19.1411 20.9197 19.087 22.4766 19.1771C22.8901 19.2012 23.2793 19.6699 23.6928 19.9343C23.3067 20.1567 22.9235 20.5653 22.5313 20.5713C19.3599 20.6224 16.1885 20.6284 13.017 20.5713C12.6096 20.5713 12.2143 20.0936 11.8008 19.8382C12.19 19.6068 12.567 19.1982 12.9653 19.1802C14.5708 19.096 16.1854 19.1411 17.7939 19.1411Z" fill="white"/>
<path d="M17.8151 26.2832C19.4266 26.2832 21.0382 26.2472 22.6467 26.3133C22.9964 26.3133 23.3309 26.7099 23.6714 26.9143C23.3309 27.1847 22.9933 27.6805 22.6437 27.6895C19.376 27.7456 16.1052 27.7456 12.8315 27.6895C12.4848 27.6895 12.1443 27.1877 11.8037 26.9203C12.1473 26.7039 12.4818 26.3193 12.8345 26.3193C14.4917 26.2472 16.161 26.2832 17.8151 26.2832Z" fill="white"/>
<path d="M17.6633 13.4558C16.0548 13.4558 14.4432 13.4918 12.8377 13.4287C12.485 13.4137 12.1445 13.0501 11.7979 12.8488C12.1445 12.5753 12.4881 12.0735 12.8377 12.0675C16.1075 12.0074 19.3762 12.0074 22.6439 12.0675C22.9905 12.0675 23.328 12.5723 23.6716 12.8428C23.328 13.0471 22.9936 13.4197 22.6439 13.4437C20.9837 13.4918 19.3235 13.4588 17.6633 13.4558Z" fill="white"/>
<path d="M16.9692 9.79544C15.613 9.79544 14.2539 9.84953 12.9038 9.76239C12.5207 9.73535 12.1619 9.29665 11.7939 9.04725C12.1679 8.81287 12.5389 8.38319 12.919 8.37417C15.5806 8.31408 18.2422 8.31408 20.9038 8.37417C21.2808 8.37417 21.6488 8.82491 22.0197 9.0683C21.6427 9.30869 21.2778 9.73234 20.8856 9.75938C19.5841 9.85253 18.2888 9.79544 16.9692 9.79544Z" fill="white"/>
<path d="M16.8811 16.9079C15.528 16.9079 14.1688 16.953 12.8188 16.8779C12.466 16.8569 12.1346 16.4662 11.791 16.2469C12.1437 15.9945 12.4904 15.5287 12.8492 15.5197C15.5584 15.4566 18.2707 15.4626 20.9799 15.5197C21.3265 15.5197 21.6641 15.9133 22.0077 16.1207C21.6549 16.3851 21.3144 16.8508 20.9434 16.8749C19.5964 16.959 18.2372 16.9079 16.8811 16.9079Z" fill="white"/>
<path d="M16.8141 31.0964C15.5096 31.0964 14.2022 31.1475 12.9038 31.0663C12.5207 31.0393 12.1619 30.6307 11.7939 30.3993C12.1193 30.1559 12.4416 29.7112 12.773 29.7052C15.5319 29.6491 18.2918 29.6491 21.0528 29.7052C21.3751 29.7052 21.6913 30.1649 22.0106 30.4143C21.6852 30.6396 21.366 31.0453 21.0285 31.0633C19.6267 31.1385 18.2219 31.0964 16.8141 31.0964Z" fill="white"/>
<path d="M17.645 6.34035C16.0365 6.34035 14.4249 6.37641 12.8194 6.31031C12.4637 6.31031 12.1231 5.92569 11.7734 5.70935C12.1292 5.45394 12.4789 4.98521 12.8347 4.9792C16.1034 4.92211 19.3721 4.92511 22.6408 4.9792C22.9875 4.9792 23.328 5.37283 23.6716 5.58016C23.3219 5.83256 22.9814 6.28326 22.6226 6.30128C20.9654 6.39143 19.3052 6.34035 17.645 6.34035Z" fill="white"/>
<path d="M17.0184 22.5991C18.329 22.5991 19.6395 22.5511 20.9439 22.6262C21.3088 22.6442 21.6494 23.0108 22.0021 23.2272C21.6463 23.4826 21.2967 23.9483 20.9379 23.9543C18.2195 24.0174 15.5012 24.0114 12.7828 23.9543C12.4514 23.9543 12.1291 23.5276 11.8037 23.2993C12.1321 23.0679 12.4514 22.6562 12.7919 22.6352C14.1967 22.5541 15.6106 22.5991 17.0184 22.5991Z" fill="white"/>
</svg>
