<svg width="39" height="39" viewBox="0 0 39 39" fill="none" xmlns="http://www.w3.org/2000/svg">
<path d="M24.8804 3.03061V3.32078C24.8804 4.28802 24.8609 5.25525 24.8902 6.22249C24.9344 7.66978 26.2905 8.62073 27.6944 8.21602C28.5892 7.95741 29.2169 7.12151 29.2256 6.15122C29.2338 5.20994 29.2256 4.26765 29.2256 3.32638V3.02093C29.3458 3.02093 29.4367 3.02093 29.5272 3.02093C30.4168 3.03315 31.3112 2.9909 32.1947 3.07184C33.5554 3.19555 34.7292 4.39543 34.9033 5.74243C34.9363 5.99448 34.9535 6.24832 34.9547 6.50248C34.9578 9.7266 34.9578 12.9507 34.9547 16.1748V20.9978L31.9368 20.1339V11.8818H3.02444V12.2754C3.02444 15.4316 3.02444 18.587 3.02444 21.7415V28.7667C3.02444 29.1776 3.03163 29.1862 3.4323 29.1867C5.88871 29.1908 8.34512 29.194 10.8015 29.1964C13.7809 29.1964 16.7602 29.1932 19.7395 29.1867H20.0205V32.2819H19.795C14.299 32.2819 8.80263 32.2819 3.30593 32.2819C1.43152 32.2819 0.00452196 30.8712 0.00400828 29.0147C0.00400828 26.2407 0.012741 23.4658 0.0122273 20.6924C0.0122273 15.9169 0.00880217 11.1411 0.00195312 6.36503C0.00195312 4.81389 0.897809 3.58906 2.37207 3.14108C2.54308 3.08633 2.72101 3.05566 2.90064 3.04995C3.83142 3.0413 4.76272 3.04588 5.72125 3.04588C5.72536 3.12937 5.73306 3.21896 5.73306 3.30856C5.73306 4.24169 5.72998 5.17431 5.73306 6.10846C5.73923 7.6428 7.14979 8.66094 8.6338 8.20278C9.44901 7.94824 10.0783 7.07009 10.086 6.14918C10.0937 5.2074 10.086 4.26562 10.0891 3.32383V3.03468H15.3964C15.401 3.13649 15.4087 3.23474 15.4097 3.33249C15.4185 4.36641 15.4015 5.40136 15.4421 6.43375C15.4698 7.13729 15.7354 7.75734 16.4345 8.06278C17.1619 8.37994 17.9242 8.39928 18.6495 8.07144C19.3584 7.75123 19.5341 7.09555 19.5459 6.39608C19.5633 5.36979 19.5515 4.34299 19.552 3.31671V3.03163L24.8804 3.03061Z" fill="white"/>
<path d="M38.9994 30.6252C39.0137 35.2287 35.2495 38.9231 30.7019 38.9979C25.8928 39.0748 22.1055 35.1732 22.1153 30.6288C22.1245 26.098 25.8137 22.2932 30.5082 22.2678C31.6205 22.2603 32.7234 22.4709 33.7532 22.8875C34.783 23.3041 35.7195 23.9185 36.5087 24.6953C37.298 25.4721 37.9243 26.396 38.3518 27.4137C38.7792 28.4314 38.9993 29.5229 38.9994 30.6252ZM30.1322 23.9655C26.5185 24.1183 23.8289 27.2959 23.8376 30.2913H25.3201C25.6242 30.2913 25.7089 30.3849 25.7074 30.7158C25.7074 31.0376 25.6078 31.1506 25.3263 31.1511C25.0268 31.1511 24.7273 31.1511 24.4273 31.1511H23.8207C24.059 34.6362 27.0779 37.2162 30.1292 37.2951V37.0451C30.1292 36.6292 30.1379 36.2133 30.1261 35.7979C30.1209 35.6131 30.2062 35.5377 30.3696 35.5041C30.8062 35.4135 30.9942 35.5601 30.9942 35.9949V37.3093C34.6141 37.1138 37.2231 33.9963 37.2559 31.1526C36.7869 31.1526 36.318 31.1526 35.849 31.1501C35.7673 31.1501 35.6219 31.1307 35.6158 31.0991C35.5731 30.8813 35.5264 30.6547 35.5469 30.4374C35.5659 30.2434 35.7668 30.2943 35.9065 30.2933C36.3657 30.2902 36.825 30.2933 37.2837 30.2933C37.2451 27.0306 34.3275 24.0668 30.9957 23.9762C30.9957 24.4581 30.9957 24.9401 30.9957 25.422C30.9957 25.7035 30.9151 25.7681 30.5653 25.7702C30.2155 25.7722 30.1322 25.7091 30.1317 25.4337C30.1317 24.9506 30.1322 24.4685 30.1322 23.9655Z" fill="white"/>
<path d="M16.3103 3.70137C16.3103 2.64148 16.3103 1.58177 16.3103 0.522218C16.3103 0.192849 16.4439 0.0294362 16.7726 0.0182366C17.2349 0.00245536 17.6973 -0.0153616 18.1596 0.0228188C18.5022 0.0518359 18.645 0.116488 18.6445 0.531891C18.6414 2.66796 18.6431 4.80402 18.6496 6.94009C18.6496 7.18648 18.5181 7.32444 18.3055 7.33207C17.7517 7.35244 17.1959 7.35345 16.6422 7.32851C16.4167 7.31833 16.3031 7.1651 16.3067 6.90751C16.3206 5.83744 16.3103 4.76941 16.3103 3.70137Z" fill="white"/>
<path d="M25.8169 3.67402C25.8169 2.62194 25.8169 1.56985 25.8169 0.517773C25.8169 0.181786 25.9484 0.0249911 26.2792 0.0153188C26.7412 0.00140416 27.2035 0.00140416 27.6662 0.0153188C28.0021 0.0255002 28.1341 0.182295 28.1341 0.515228C28.1341 2.63602 28.1341 4.75715 28.1341 6.87863C28.1341 7.20392 28.0586 7.32457 27.7324 7.34239C27.2285 7.36962 26.7235 7.36962 26.2196 7.34239C25.896 7.32508 25.8164 7.20138 25.8164 6.88168C25.8167 5.81229 25.8169 4.74307 25.8169 3.67402Z" fill="white"/>
<path d="M9.13896 3.70793C9.13896 4.77698 9.13176 5.84348 9.1446 6.91101C9.14769 7.18132 9.02235 7.32845 8.78503 7.33659C8.24002 7.35492 7.69295 7.35186 7.14794 7.32692C6.93476 7.31725 6.81148 7.1742 6.81251 6.92933C6.81918 4.76883 6.81662 2.60833 6.81816 0.447319C6.81816 0.197364 6.96045 0.0359892 7.2553 0.0232624C7.74124 0.00239043 8.23129 0.000354138 8.7162 0.0232624C9.02441 0.0370073 9.13947 0.193292 9.13998 0.506881C9.13998 1.57356 9.13964 2.64057 9.13896 3.70793Z" fill="white"/>
<path d="M20.5855 17.6246C20.0643 17.6246 19.5427 17.6246 19.0208 17.6246C18.5883 17.6246 18.4044 17.45 18.4044 17.0305C18.4017 16.2336 18.4017 15.4371 18.4044 14.6409C18.4044 14.1985 18.6001 14.0122 19.047 14.0117C20.0816 14.0117 21.1159 14.0117 22.1501 14.0117C22.5976 14.0117 22.7897 14.2016 22.7907 14.6435C22.7907 15.4397 22.7907 16.2355 22.7907 17.031C22.7907 17.4408 22.6078 17.6215 22.1989 17.6226C21.6606 17.6226 21.1202 17.6226 20.585 17.6226L20.5855 17.6246Z" fill="white"/>
<path d="M14.3926 17.6241C13.8532 17.6241 13.3139 17.6272 12.775 17.6241C12.3964 17.621 12.21 17.4342 12.2074 17.0575C12.2043 16.2348 12.2043 15.412 12.2074 14.589C12.2074 14.2327 12.417 14.0168 12.776 14.0153C13.8544 14.0105 14.9331 14.0105 16.0122 14.0153C16.379 14.0153 16.5906 14.2189 16.5927 14.5814C16.5978 15.4034 16.5968 16.2255 16.5896 17.0478C16.5855 17.4683 16.4134 17.6246 15.9865 17.6261C15.4538 17.6251 14.9232 17.6236 14.3926 17.6241Z" fill="white"/>
<path d="M20.6022 18.7807C21.1323 18.7807 21.6624 18.7776 22.1946 18.7807C22.6138 18.7837 22.7915 18.9568 22.7931 19.3661C22.7961 20.1884 22.7961 21.0104 22.7931 21.832C22.7931 22.1706 22.5799 22.392 22.2408 22.3951C21.1542 22.4005 20.0682 22.4013 18.9826 22.3976C18.6184 22.3976 18.4134 22.1894 18.4109 21.8254C18.4047 21.0109 18.4016 20.1964 18.4073 19.3854C18.4104 18.9471 18.5675 18.7929 19.016 18.7852C19.5456 18.7756 20.0752 18.7852 20.6053 18.7852L20.6022 18.7807Z" fill="white"/>
<path d="M14.3941 23.7685C14.9237 23.7685 15.4528 23.7685 15.9824 23.7685C16.4124 23.7715 16.5901 23.9451 16.5916 24.3722C16.594 25.1868 16.5928 25.9999 16.588 26.8117C16.588 27.1818 16.3928 27.3788 16.0184 27.3809C14.9328 27.3863 13.8472 27.3863 12.7616 27.3809C12.4278 27.3809 12.21 27.1701 12.2084 26.8458C12.204 25.9974 12.204 25.1501 12.2084 24.304C12.2084 23.9767 12.3969 23.7787 12.7283 23.7731C13.2835 23.7629 13.8393 23.77 14.3951 23.77L14.3941 23.7685Z" fill="white"/>
<path d="M26.7202 17.6225H25.1561C24.7267 17.6225 24.5371 17.4438 24.5371 17.0264C24.5371 16.2037 24.5405 15.381 24.5474 14.5584C24.5474 14.2397 24.7462 14.0167 25.0611 14.0147C26.1737 14.0055 27.2867 14.0055 28.4 14.0147C28.7082 14.0147 28.9173 14.2224 28.9203 14.5294C28.9286 15.3863 28.9286 16.2429 28.9203 17.0992C28.9162 17.4555 28.7277 17.6204 28.3681 17.6225C27.8154 17.625 27.2678 17.6225 26.7202 17.6225Z" fill="white"/>
<path d="M8.25032 18.7824C8.79739 18.7824 9.34497 18.7798 9.89409 18.7824C10.2783 18.7824 10.4591 18.9651 10.4627 19.3424C10.4655 20.1647 10.4655 20.9867 10.4627 21.8083C10.4627 22.1916 10.2665 22.3948 9.88227 22.3963C8.80492 22.4007 7.72774 22.4007 6.65072 22.3963C6.29474 22.3963 6.08567 22.1967 6.08208 21.85C6.0742 21.0114 6.0742 20.1727 6.08208 19.3337C6.08208 18.957 6.27471 18.7865 6.66408 18.7849C7.19419 18.7824 7.72431 18.7849 8.25648 18.7849L8.25032 18.7824Z" fill="white"/>
<path d="M14.4145 18.7838C14.9456 18.7838 15.4763 18.7802 16.0069 18.7838C16.4096 18.7874 16.5884 18.9615 16.5904 19.3586C16.5946 20.1731 16.5946 20.9876 16.5904 21.8021C16.5904 22.1941 16.385 22.3957 15.9848 22.3972C14.9232 22.4003 13.8616 22.4003 12.8 22.3972C12.4045 22.3972 12.2057 22.1905 12.2047 21.7945C12.2026 20.9884 12.2026 20.1824 12.2047 19.3764C12.2047 18.9559 12.3716 18.7889 12.7944 18.7848C13.3358 18.7802 13.8751 18.7838 14.4145 18.7838Z" fill="white"/>
<path d="M8.26238 23.7691C8.80123 23.7691 9.34111 23.7661 9.8779 23.7691C10.2745 23.7722 10.462 23.957 10.4614 24.3439C10.4614 25.1825 10.4572 26.0209 10.4486 26.8592C10.4486 27.1549 10.2668 27.3744 9.97191 27.3774C8.84387 27.389 7.71583 27.389 6.58779 27.3774C6.27959 27.3744 6.08388 27.1585 6.08131 26.8495C6.07446 26.0011 6.07446 25.154 6.08131 24.3082C6.08388 23.9519 6.27497 23.7722 6.64635 23.7676C7.18469 23.761 7.72508 23.7676 8.26136 23.7676L8.26238 23.7691Z" fill="white"/>
<path d="M22.4849 23.789C22.2332 24.1327 22.0057 24.4361 21.7869 24.7451C21.2603 25.4962 20.8432 26.3171 20.5479 27.1835C20.4934 27.3408 20.4246 27.3938 20.2607 27.3872C19.8421 27.376 19.4229 27.3872 19.0043 27.3816C18.6015 27.377 18.4094 27.1886 18.4063 26.7865C18.4002 25.9821 18.3988 25.1776 18.4022 24.3729C18.4022 23.9458 18.5861 23.7677 19.0104 23.7672C20.0703 23.7651 21.13 23.7651 22.1896 23.7672C22.2743 23.7697 22.3581 23.7799 22.4849 23.789Z" fill="white"/>
<path d="M28.9117 20.2515C27.3432 20.5062 25.8496 21.0968 24.5352 21.9823V21.3104C24.5352 20.6577 24.5352 20.0046 24.5377 19.352C24.5377 18.9696 24.717 18.7869 25.1028 18.7849C26.1986 18.7787 27.2934 18.7787 28.3872 18.7849C28.6985 18.7849 28.886 18.9238 28.9066 19.2008C28.9312 19.5434 28.9117 19.8901 28.9117 20.2515Z" fill="white"/>
<path d="M30.774 29.7926C31.0263 29.3716 31.2569 28.9878 31.4865 28.6029C31.6827 28.2751 31.8764 27.9447 32.0752 27.6184C32.2396 27.3486 32.5827 27.2773 32.8817 27.4448C32.9467 27.4819 33.0037 27.5314 33.0494 27.5904C33.095 27.6493 33.1285 27.7167 33.1479 27.7885C33.1673 27.8604 33.1722 27.9353 33.1623 28.009C33.1524 28.0827 33.1279 28.1537 33.0902 28.2181C32.5293 29.1685 31.9601 30.1149 31.4048 31.0689C31.3626 31.1611 31.3544 31.265 31.3817 31.3626C31.4228 31.5255 31.4999 31.6797 31.5589 31.8391C31.6781 32.1583 31.6401 32.3237 31.4048 32.5182C31.1696 32.7127 30.9097 32.7437 30.6472 32.5951C30.6179 32.5788 30.5917 32.5569 30.565 32.5386C30.2927 32.8063 29.9224 32.8374 29.589 32.4596C29.4349 32.2876 29.4267 32.0896 29.5304 31.8915C29.6124 31.7236 29.7088 31.563 29.8186 31.4115C29.9778 31.2078 29.9727 31.0129 29.8792 30.7787C29.3496 29.4398 28.8339 28.0954 28.3115 26.7535C28.164 26.3747 28.2575 26.1019 28.6037 25.9201C28.9263 25.7501 29.2546 25.8692 29.3943 26.2256C29.6948 26.9892 29.9845 27.7594 30.2799 28.526C30.4376 28.9348 30.5984 29.3431 30.774 29.7926Z" fill="white"/>
</svg>
