<svg width="134" height="134" viewBox="0 0 134 134" fill="none" xmlns="http://www.w3.org/2000/svg">
<path d="M60.3003 0H73.7003C74.3191 0.231415 74.9525 0.421647 75.5964 0.569484C103.209 5.11655 121.628 20.6002 130.851 47.0205C132.339 51.2951 132.975 55.8646 134 60.3V73.7C133.772 74.6581 133.491 75.6161 133.33 76.5876C128.573 103.133 113.538 121.143 88.2593 130.436C83.6028 132.144 78.5712 132.834 73.7137 134H60.3137C59.6973 133.766 59.0661 133.574 58.4242 133.424C30.8113 128.877 12.393 113.393 3.16935 86.9726C1.67525 82.698 1.04547 78.1287 0.0136719 73.7V60.3C0.248172 59.3352 0.522872 58.377 0.683672 57.4055C5.44737 30.8668 20.4822 12.8439 45.7613 3.56436C50.4178 1.84916 55.4428 1.1591 60.3003 0ZM53.2451 77.72C51.2686 75.4956 49.6137 73.5526 47.8851 71.69C46.1565 69.8274 44.1533 67.8509 42.2036 66.0218C38.3712 62.4172 33.3863 62.3569 29.9559 65.8074C26.5255 69.2579 26.606 74.3432 30.2307 78.0483C35.7828 83.6897 41.3794 89.2886 47.0208 94.8451C51.1346 98.9053 55.8649 98.9321 59.9854 94.8451C74.4529 80.4491 88.8846 66.0195 103.281 51.5565C107.502 47.3087 107.683 42.1363 103.951 38.5719C100.326 35.1013 95.3345 35.4697 91.2207 39.5634C85.6061 45.1512 80.0095 50.7503 74.4306 56.3604C67.5028 63.2815 60.6218 70.2495 53.2451 77.6932V77.72Z" fill="white"/>
</svg>
